# xmcd CD database file
#
# Track frame offsets:
#	150
#	31638
#	62678
#	96235
#	138385
#	169059
#	202187
#	227123
#	258333
#	275472
#	291152
#	312693
#
# Disc length: 4457 seconds
#
# Revision: 1
# Processed by: cddbd v1.5.2PL0 Copyright (c) Steve Scherf et al.
# Submitted via: CDex 1.51
#
DISCID=b311670c
DTITLE=Jazz Lips - Hotter Than That - CD8
DYEAR=2005
DGENRE=Jazz
TTITLE0=After You've Gone
TTITLE1=Just A Closer Walk With Thee
TTITLE2=That's A Plenty
TTITLE3=East 49th Street Blues
TTITLE4=Mallorca
TTITLE5=Chinatown
TTITLE6=Float Me Down The River
TTITLE7='Ti Bon Ange
TTITLE8=I'm Walking
TTITLE9=At A Jazzband Ball
TTITLE10=Jeep's Blues
TTITLE11=Mama Inez
EXTD=YEAR: 2005
EXTT0=
EXTT1=
EXTT2=
EXTT3=
EXTT4=
EXTT5=
EXTT6=
EXTT7=
EXTT8=
EXTT9=
EXTT10=
EXTT11=
PLAYORDER=
